<svg width="158" height="137" viewBox="0 0 158 137" fill="none" xmlns="http://www.w3.org/2000/svg">
<path d="M52.2501 136.61C15.5801 136.61 7.84025e-05 106.02 7.84025e-05 68.3999C7.84025e-05 30.7799 15.5801 -5.6982e-05 52.2501 -5.6982e-05C88.9201 -5.6982e-05 104.31 30.7799 104.31 68.3999C104.31 106.02 88.9201 136.61 52.2501 136.61ZM52.2501 118.94C75.8101 118.94 82.8401 95.3799 82.8401 68.3999C82.8401 41.4199 75.8101 17.6699 52.2501 17.6699C28.5001 17.6699 21.4701 41.4199 21.4701 68.3999C21.4701 95.3799 28.5001 118.94 52.2501 118.94ZM136.756 133.95V36.4799C131.056 41.7999 120.986 42.7499 109.206 42.7499V26.0299C132.386 25.4599 139.226 18.4299 140.936 2.65994H157.276V133.95H136.756Z" fill="#EDEDEE"/>
</svg>
