<svg width="214" height="137" viewBox="0 0 214 137" fill="none" xmlns="http://www.w3.org/2000/svg">
<path d="M52.2501 136.61C15.5801 136.61 7.84025e-05 106.02 7.84025e-05 68.3999C7.84025e-05 30.7799 15.5801 -5.6982e-05 52.2501 -5.6982e-05C88.9201 -5.6982e-05 104.31 30.7799 104.31 68.3999C104.31 106.02 88.9201 136.61 52.2501 136.61ZM52.2501 118.94C75.8101 118.94 82.8401 95.3799 82.8401 68.3999C82.8401 41.4199 75.8101 17.6699 52.2501 17.6699C28.5001 17.6699 21.4701 41.4199 21.4701 68.3999C21.4701 95.3799 28.5001 118.94 52.2501 118.94ZM165.636 136.61C131.816 136.61 112.816 119.13 112.816 89.1099H133.716C133.716 107.16 141.316 118.94 164.306 118.94C185.016 118.94 192.046 110.58 192.046 96.5199C192.046 78.4699 179.126 74.0999 165.826 74.0999H153.476V57.1899H165.066C178.176 57.1899 187.486 51.2999 187.486 37.0499C187.486 26.7899 181.216 17.6699 165.066 17.6699C142.836 17.6699 137.326 29.4499 137.326 42.1799H116.426C116.426 17.86 132.956 -5.6982e-05 165.256 -5.6982e-05C188.626 -5.6982e-05 208.766 12.9199 208.766 36.0999C208.766 50.1599 201.546 58.8999 189.006 64.2199V64.5999C206.296 70.1099 213.326 81.5099 213.326 96.8999C213.326 122.36 194.516 136.61 165.636 136.61Z" fill="#EDEDEE"/>
</svg>
