<svg width="1309" height="118" viewBox="0 0 1309 118" fill="none" xmlns="http://www.w3.org/2000/svg">
<path d="M0 118V-6.67572e-06H6V118H0ZM24 118V-6.67572e-06H36V118H24ZM42 118V-6.67572e-06H60V118H42ZM66.0156 118V-6.67572e-06H72.0156V118H66.0156ZM90.0156 118V-6.67572e-06H114.016V118H90.0156ZM120.016 118V-6.67572e-06H126.016V118H120.016ZM132.031 118V-6.67572e-06H138.031V118H132.031ZM150.031 118V-6.67572e-06H156.031V118H150.031ZM168.031 118V-6.67572e-06H192.031V118H168.031ZM198.047 118V-6.67572e-06H204.047V118H198.047ZM210.047 118V-6.67572e-06H222.047V118H210.047ZM234.047 118V-6.67572e-06H240.047V118H234.047ZM264.062 118V-6.67572e-06H288.063V118H264.062ZM294.063 118V-6.67572e-06H312.063V118H294.063ZM318.063 118V-6.67572e-06H324.063V118H318.063ZM330.078 118V-6.67572e-06H342.078V118H330.078ZM348.078 118V-6.67572e-06H360.078V118H348.078ZM372.078 118V-6.67572e-06H384.078V118H372.078ZM396.094 118V-6.67572e-06H402.094V118H396.094ZM426.094 118V-6.67572e-06H438.094V118H426.094ZM444.094 118V-6.67572e-06H450.094V118H444.094ZM462.109 118V-6.67572e-06H468.109V118H462.109ZM474.109 118V-6.67572e-06H480.109V118H474.109ZM492.109 118V-6.67572e-06H516.109V118H492.109ZM528.125 118V-6.67572e-06H534.125V118H528.125ZM540.125 118V-6.67572e-06H564.125V118H540.125ZM576.125 118V-6.67572e-06H582.125V118H576.125ZM594.141 118V-6.67572e-06H600.141V118H594.141ZM612.141 118V-6.67572e-06H636.141V118H612.141ZM648.141 118V-6.67572e-06H654.141V118H648.141ZM660.156 118V-6.67572e-06H684.156V118H660.156ZM690.156 118V-6.67572e-06H708.156V118H690.156ZM714.156 118V-6.67572e-06H720.156V118H714.156ZM726.172 118V-6.67572e-06H738.172V118H726.172ZM744.172 118V-6.67572e-06H756.172V118H744.172ZM768.172 118V-6.67572e-06H780.172V118H768.172ZM792.188 118V-6.67572e-06H798.188V118H792.188ZM822.188 118V-6.67572e-06H828.188V118H822.188ZM840.188 118V-6.67572e-06H852.188V118H840.188ZM858.203 118V-6.67572e-06H864.203V118H858.203ZM882.203 118V-6.67572e-06H906.203V118H882.203ZM912.203 118V-6.67572e-06H918.203V118H912.203ZM924.219 118V-6.67572e-06H936.219V118H924.219ZM948.219 118V-6.67572e-06H954.219V118H948.219ZM960.219 118V-6.67572e-06H966.219V118H960.219ZM990.234 118V-6.67572e-06H996.234V118H990.234ZM1014.23 118V-6.67572e-06H1038.23V118H1014.23ZM1044.23 118V-6.67572e-06H1050.23V118H1044.23ZM1056.25 118V-6.67572e-06H1062.25V118H1056.25ZM1074.25 118V-6.67572e-06H1080.25V118H1074.25ZM1092.25 118V-6.67572e-06H1116.25V118H1092.25ZM1122.27 118V-6.67572e-06H1134.27V118H1122.27ZM1140.27 118V-6.67572e-06H1152.27V118H1140.27ZM1164.27 118V-6.67572e-06H1176.27V118H1164.27ZM1188.28 118V-6.67572e-06H1194.28V118H1188.28ZM1200.28 118V-6.67572e-06H1224.28V118H1200.28ZM1236.28 118V-6.67572e-06H1242.28V118H1236.28ZM1254.3 118V-6.67572e-06H1260.3V118H1254.3ZM1284.3 118V-6.67572e-06H1296.3V118H1284.3ZM1302.3 118V-6.67572e-06H1308.3V118H1302.3Z" fill="white"/>
</svg>
