<svg width="70" height="16" viewBox="0 0 70 16" fill="none" xmlns="http://www.w3.org/2000/svg">
<path d="M12.1247 1.73706C12.1247 0.0862446 8.3953 1.68083 7.90243 1.9778C5.9791 3.13675 4.284 4.98459 3.02282 6.81112C1.82941 8.53952 -0.0231568 11.6074 1.69874 13.6074C2.64321 14.7045 4.4359 14.8356 5.76357 14.8852C7.7843 14.9608 9.8706 14.9932 11.8839 14.7926C15.8211 14.4004 20.3333 13.2076 23.6061 10.9037C25.0013 9.92159 26.0463 8.14762 24.3469 6.90372C23.1639 6.03786 21.0365 5.05109 19.6247 5.94076C17.8295 7.07199 16.6695 10.5115 17.8376 12.3667C19.2383 14.5913 23.415 14.3324 25.5506 13.6815C28.2134 12.87 31.1697 11.2317 32.0969 8.45002C32.1663 8.24195 32.3007 7.59675 32.2543 7.81112C32.1012 8.51919 32.1103 9.25739 32.1339 9.97779C32.2207 12.624 34.7489 12.6532 36.8933 12.8111C40.2176 13.0561 43.4923 12.3389 46.4949 10.8945C47.3559 10.4804 48.0533 9.97452 48.5876 9.18149C48.7089 9.00175 48.8626 8.75942 49.0693 8.66299C49.4963 8.46369 50.1289 8.57182 50.5693 8.64445C51.9456 8.87162 53.2666 9.06525 54.6709 9.04262C59.1839 8.96982 63.6079 7.75859 68.1246 7.57039" stroke="#00bbfd" stroke-width="2" stroke-linecap="round"/>
</svg>
